# xmcd
#
# Track frame offsets: 
#        150
#        5123
#        12041
#        19677
#        25103
#        31071
#        35178
#        51305
#        61644
#        66082
#        82385
#        91892
#        96928
#        98294
#        100581
#        107413
#        116271
#        126050
#        132430
#        141073
#        144984
#        148807
#        150779
#        152233
#        153217
#        157342
#        163169
#        165860
#        167404
#        172820
#        181055
#        184580
#        188074
#        194076
#        195662
#        201084
#        208674
#        213816
#        226892
#        228137
#        242299
#        255579
#        264658
#        270669
#        281527
#        282621
#        283725
#        296037
#        300426
#        305366
#        309863
#        314074
#
# Disc length: 4376 seconds
#
# Revision: 0
# Processed by: cddbd v1.5.2PL0 Copyright (c) Steve Scherf et al.
# Submitted via: ExactAudioCopy v0.95b3
#
DISCID=c0111634
DTITLE=The Beatles  - Complete Home Recordings - Home Tapes 4 - 1967-6
DTITLE=8
DYEAR=1900
DGENRE=
TTITLE0=Good Morning Good Morning
TTITLE1=Across The Universe
TTITLE2=She's Walkin' Past My Door
TTITLE3=You Know My Name (Look Up The Number)
TTITLE4=The Magicians
TTITLE5=I Wonder What The Magicians Are Cooking Up Now
TTITLE6=Jessie's Dream
TTITLE7=Step Inside Love
TTITLE8=All Together On The Wireless Machine
TTITLE9=Stranger In My Arms
TTITLE10=Lucy From Littletown
TTITLE11=Pedro The Fisherman
TTITLE12=Down In Eastern Australia
TTITLE13=Daddy's Little Sunshine Boy
TTITLE14=The Edgehill Country Club
TTITLE15=Chi Chi's Cafe
TTITLE16=Down In Cuba
TTITLE17=Hey Bulldog
TTITLE18=Hey Bulldog
TTITLE19=Cry Baby Cry
TTITLE20=Cry Baby Cry
TTITLE21=Across The Universe
TTITLE22=Cry Baby Cry
TTITLE23=Across The Universe
TTITLE24=Cry Baby Cry
TTITLE25=When The Saints Go Marching In
TTITLE26=You Are My Sunshine
TTITLE27=Jingle Bells
TTITLE28=She'll Be Coming Around The Mountain
TTITLE29=Happiness Runs
TTITLE30=Instrumental
TTITLE31=Blowin' In The Wind
TTITLE32=Hare Krishna Mantra
TTITLE33=O Sole Mio
TTITLE34=Catch The Wind
TTITLE35=Spiritual Regeneration
TTITLE36=Happy Birthday Mike Love
TTITLE37=Julia
TTITLE38=Julia
TTITLE39=Julia
TTITLE40=Julia
TTITLE41=Pigies
TTITLE42=Honey Pie
TTITLE43=Junk
TTITLE44=Look At Me
TTITLE45=Look At Me
TTITLE46=Look At Me
TTITLE47=Excerpts From Ringo's Christmas Tape
TTITLE48=Excerpts From Paul's Christmas Tape
TTITLE49=Jock And Yono
TTITLE50=Once Upon A Pool Table
TTITLE51=Excerpts From George's Christmas Tape
EXTD=
EXTT0=
EXTT1=
EXTT2=
EXTT3=
EXTT4=
EXTT5=
EXTT6=
EXTT7=
EXTT8=
EXTT9=
EXTT10=
EXTT11=
EXTT12=
EXTT13=
EXTT14=
EXTT15=
EXTT16=
EXTT17=
EXTT18=
EXTT19=
EXTT20=
EXTT21=
EXTT22=
EXTT23=
EXTT24=
EXTT25=
EXTT26=
EXTT27=
EXTT28=
EXTT29=
EXTT30=
EXTT31=
EXTT32=
EXTT33=
EXTT34=
EXTT35=
EXTT36=
EXTT37=
EXTT38=
EXTT39=
EXTT40=
EXTT41=
EXTT42=
EXTT43=
EXTT44=
EXTT45=
EXTT46=
EXTT47=
EXTT48=
EXTT49=
EXTT50=
EXTT51=
PLAYORDER=
